<?xml version="1.0" standalone="no"?>
<!DOCTYPE svg PUBLIC "-//W3C//DTD SVG 20010904//EN"
 "http://www.w3.org/TR/2001/REC-SVG-20010904/DTD/svg10.dtd">
<svg version="1.0" xmlns="http://www.w3.org/2000/svg"
 width="895.000000pt" height="895.000000pt" viewBox="0 0 895.000000 895.000000"
 preserveAspectRatio="xMidYMid meet">
<metadata>
Created by potrace 1.16, written by Peter Selinger 2001-2019
</metadata>
<g transform="translate(0.000000,895.000000) scale(0.100000,-0.100000)"
fill="#000000" stroke="none">
<path d="M2 4473 l3 -4468 4468 -3 4467 -2 0 4470 0 4470 -4470 0 -4470 0 2
-4467z m6983 4295 c20 -67 19 -147 -1 -176 -12 -17 -25 -22 -58 -22 -42 0 -44
1 -50 35 -8 42 -4 50 35 70 58 31 29 54 -49 39 -29 -6 -30 -8 -36 -76 -7 -62
-10 -70 -34 -79 -96 -36 -145 54 -52 96 l40 18 0 62 0 62 83 10 c45 5 87 10
94 11 7 1 19 -21 28 -50z m1225 -8 c11 -11 20 -32 20 -48 0 -15 -33 -95 -73
-177 -41 -83 -82 -173 -92 -201 l-18 -52 36 -36 37 -37 0 31 c0 40 39 58 88
40 28 -10 36 -9 58 9 16 12 41 21 62 21 l35 0 -5 -72 c-4 -51 -12 -85 -28
-113 -27 -46 -60 -85 -72 -85 -14 0 -48 33 -85 83 -19 26 -38 47 -42 47 -16 0
-34 -228 -27 -342 9 -153 34 -267 95 -431 28 -75 51 -141 51 -146 0 -17 -96
-97 -145 -121 -43 -22 -63 -25 -140 -23 -49 1 -117 8 -150 16 l-60 14 2 69 c4
112 -14 282 -40 379 -33 122 -118 347 -173 453 -32 64 -44 98 -44 130 0 42 4
49 63 104 34 33 80 67 102 77 22 10 54 29 70 43 45 37 61 39 118 18 29 -11 53
-20 54 -20 2 0 46 88 98 195 l96 195 45 0 c31 0 50 -6 64 -20z m-6123 -65 c72
-29 76 -70 12 -116 -17 -12 -27 -25 -22 -29 4 -4 69 -29 143 -55 142 -50 204
-83 257 -137 65 -68 96 -188 71 -282 -24 -92 -51 -63 -37 40 25 172 -47 254
-301 343 -63 22 -151 54 -195 71 -109 43 -203 62 -310 62 -131 1 -167 -17
-234 -117 -29 -42 -61 -86 -72 -98 -18 -20 -19 -20 -19 -1 0 32 46 119 85 162
57 64 124 92 214 92 42 -1 112 -7 156 -15 111 -20 113 -20 129 19 17 40 50 76
71 76 8 0 32 -7 52 -15z m3521 -31 c33 -9 27 -19 -30 -53 l-53 -31 36 0 c32 0
59 -14 59 -30 0 -12 -50 -30 -80 -30 -37 0 -80 19 -80 36 0 7 -6 11 -14 8 -19
-7 -29 12 -22 40 6 24 15 29 96 51 56 16 60 16 88 9z m-1099 -19 c39 -8 87
-21 106 -30 32 -13 35 -17 25 -35 -10 -18 -18 -21 -53 -16 -38 5 -39 5 -11 -4
33 -10 61 -36 51 -47 -3 -3 -49 -6 -101 -7 -78 -1 -98 2 -112 16 -10 10 -15
20 -12 23 3 3 36 12 74 19 l69 13 -50 7 c-85 13 -135 49 -93 65 31 13 27 13
107 -4z m821 -26 c6 -11 8 -33 5 -50 -6 -26 -4 -29 20 -29 24 0 26 -3 23 -37
-3 -35 -6 -38 -35 -41 -26 -3 -33 0 -33 15 -1 14 -5 12 -24 -11 -32 -39 -61
-30 -52 17 6 30 4 33 -20 32 -15 0 -32 8 -38 18 -17 26 4 51 48 55 29 3 36 0
36 -15 0 -10 10 1 22 25 25 47 33 51 48 21z m-534 -39 c7 -19 13 -64 13 -99
l1 -64 113 6 c61 4 231 7 377 8 187 1 255 4 230 10 -53 15 -90 31 -90 39 0 15
61 32 97 27 44 -7 87 -45 73 -62 -12 -14 55 -25 152 -25 31 0 60 -5 63 -10 12
-19 -30 -75 -86 -113 -29 -21 -56 -42 -57 -48 -2 -5 22 -33 53 -62 59 -54 85
-92 85 -125 0 -18 -10 -20 -97 -26 -54 -3 -260 -5 -458 -4 -198 1 -548 -2
-777 -7 l-418 -7 0 27 c0 27 25 56 126 143 l39 34 -27 21 c-14 12 -51 37 -82
55 -43 25 -56 39 -56 57 0 14 7 26 18 29 26 8 228 26 297 26 46 1 56 3 43 11
-10 5 -18 14 -18 20 0 32 171 57 203 30 26 -21 21 -28 -29 -36 -26 -3 -56 -11
-68 -16 -17 -8 -14 -8 13 -4 18 3 78 5 133 5 l100 0 -6 38 c-12 63 -16 72 -42
78 -28 7 -28 7 -9 44 27 52 72 52 91 0z m139 24 c21 -8 45 -56 45 -91 0 -52
-100 -84 -142 -46 -32 29 -17 126 21 136 26 7 58 7 76 1z m185 -24 c23 -23 27
-77 7 -103 -6 -10 -29 -20 -49 -23 -31 -5 -41 -2 -63 20 -21 21 -25 33 -20 54
16 65 84 93 125 52z m2036 -143 c74 -37 114 -87 114 -140 0 -24 -5 -48 -12
-55 -7 -7 -41 -12 -83 -12 -59 0 -76 -4 -108 -26 -38 -26 -137 -64 -166 -64
-31 0 -42 -17 -57 -83 l-16 -67 -39 0 c-30 0 -47 7 -75 33 -109 100 -23 330
158 421 49 25 60 27 143 23 71 -3 101 -9 141 -30z m-5328 -39 c7 -7 12 -28 12
-47 1 -30 2 -33 11 -18 15 26 29 11 29 -31 l0 -37 26 33 c30 38 55 42 51 10
-1 -17 3 -23 18 -21 10 1 27 -3 37 -8 16 -9 14 -13 -17 -40 -22 -19 -35 -40
-35 -55 0 -21 3 -23 26 -14 35 14 36 13 22 -10 -7 -11 -26 -25 -42 -32 -26
-10 -31 -9 -47 11 -11 13 -19 35 -19 50 l0 26 -32 -34 -32 -34 -8 29 c-7 26
-4 67 9 119 3 12 -11 2 -37 -28 -33 -37 -45 -45 -55 -37 -26 22 -28 68 -4 108
43 72 62 85 87 60z m339 -90 c4 -7 6 -25 4 -40 -4 -39 15 -43 40 -8 26 35 39
38 39 11 0 -18 2 -19 28 -5 24 12 28 12 41 -4 12 -16 49 -93 66 -137 7 -18 9
-17 21 10 7 17 13 43 14 58 0 17 4 26 10 22 14 -8 3 -89 -17 -127 -16 -33 -31
-35 -67 -7 -19 15 -26 29 -26 56 l0 36 -23 -26 c-16 -19 -32 -27 -55 -27 -25
0 -35 -6 -47 -31 -9 -16 -25 -39 -36 -50 -20 -20 -20 -20 15 -34 19 -8 37 -19
41 -25 3 -5 29 -10 56 -10 41 0 54 -5 74 -26 14 -15 25 -30 25 -34 0 -17 -59
-59 -92 -65 -42 -8 -55 -19 -60 -55 -4 -32 27 -38 71 -16 33 18 61 21 61 7 0
-4 -19 -21 -41 -37 -120 -83 -209 16 -145 160 15 33 24 61 22 64 -16 15 -38
-19 -72 -114 -41 -117 -74 -167 -95 -147 -19 19 -13 69 18 131 26 52 28 67 28
168 0 123 6 138 58 150 18 3 43 15 56 25 22 18 22 19 3 19 -11 0 -29 8 -41 18
-19 15 -20 21 -10 60 12 43 22 52 36 30z m1829 -43 c91 -18 108 -131 32 -211
-52 -55 -145 -51 -199 9 -35 39 -39 94 -9 142 24 39 96 77 130 70 8 -2 29 -6
46 -10z m-3101 -65 c28 -26 36 -97 12 -97 -7 0 -40 -15 -72 -34 -33 -19 -86
-48 -118 -64 l-57 -30 47 -5 48 -5 -40 -7 c-22 -4 -54 -8 -72 -8 -29 0 -33 4
-42 38 -18 61 -13 116 12 152 55 81 222 116 282 60z m770 -73 c19 -5 19 -5 -2
-12 -14 -4 -28 -22 -37 -49 -27 -76 -66 -201 -66 -212 0 -7 21 -15 48 -18 79
-11 152 -29 152 -37 0 -9 -45 -16 -158 -25 -84 -6 -142 6 -142 30 0 6 20 74
45 151 41 128 43 141 28 157 -8 9 -13 24 -10 31 5 15 18 13 142 -16z m-324
-70 c-35 -142 -24 -194 51 -249 31 -23 112 -58 168 -73 14 -4 70 -27 124 -52
79 -37 122 -50 215 -64 64 -10 150 -28 191 -39 96 -27 190 -29 227 -5 41 27
59 53 83 117 12 31 31 65 42 75 21 18 21 18 14 -27 -11 -72 -55 -150 -104
-185 -41 -28 -49 -30 -135 -29 -71 0 -111 7 -177 27 -47 15 -113 30 -148 34
l-62 6 17 -45 c14 -39 14 -50 3 -77 -11 -27 -17 -31 -51 -31 -74 0 -103 64
-63 141 13 26 13 26 -64 62 -42 20 -114 50 -160 66 -106 39 -129 52 -173 95
-58 57 -74 151 -45 251 13 42 53 101 63 91 2 -2 -5 -42 -16 -89z m447 29 c48
-25 65 -51 57 -88 -4 -18 -14 -43 -23 -56 -11 -17 -13 -38 -8 -83 l6 -60 -29
20 c-16 12 -36 21 -44 21 -31 0 -88 32 -99 56 -10 20 -8 29 9 52 18 23 27 27
74 27 48 0 54 3 57 22 3 17 -6 26 -45 43 l-47 21 29 19 c36 24 30 23 63 6z
m220 -42 c27 -19 28 -34 3 -34 -14 0 -25 -14 -39 -52 -10 -29 -29 -81 -42
-116 -35 -96 -77 -139 -94 -95 -4 9 12 73 35 142 33 99 39 129 30 143 -6 10
-11 20 -11 23 0 12 98 4 118 -11z m1258 -111 c-21 -139 -12 -185 41 -215 l31
-19 22 31 c12 17 26 59 32 97 5 38 15 74 21 81 7 9 30 12 71 10 l61 -3 5 -88
c4 -79 8 -91 29 -108 14 -11 36 -19 50 -17 21 3 28 12 43 58 9 30 17 70 17 88
1 38 17 41 100 16 97 -28 153 -110 137 -198 -5 -26 -15 -38 -44 -52 -95 -46
-712 -20 -980 41 -86 20 -122 53 -122 114 0 66 72 143 157 169 l33 10 -1 -78
c-3 -89 4 -103 58 -121 29 -9 37 -9 44 2 14 22 37 109 45 167 l7 52 74 0 75 0
-6 -37z m-514 -251 c33 -61 85 -79 333 -114 138 -19 203 -22 475 -23 393 0
385 -3 434 139 6 18 7 18 26 1 29 -27 24 -52 -15 -77 -19 -13 -44 -40 -55 -60
l-21 -38 -77 2 c-54 1 -91 -4 -122 -16 -60 -24 -117 -31 -135 -16 -26 21 -128
24 -179 5 -45 -17 -46 -17 -117 9 -66 24 -75 25 -128 15 -54 -12 -60 -11 -114
15 -52 26 -62 28 -134 21 l-78 -6 -20 37 c-12 23 -38 48 -65 64 -40 23 -45 30
-48 66 -3 43 5 38 40 -24z m2620 -49 c46 -41 63 -146 32 -204 -21 -41 -88 -70
-167 -72 l-62 -2 -22 45 c-28 56 -29 100 -3 150 46 90 164 134 222 83z m1190
-7 c76 -36 144 -106 182 -186 28 -59 31 -74 31 -165 0 -90 -3 -105 -28 -155
-38 -73 -77 -112 -151 -149 -145 -73 -313 -65 -434 22 -126 90 -192 278 -147
419 49 159 201 251 400 245 74 -3 100 -8 147 -31z m-3644 -138 c54 10 60 9
117 -20 59 -30 60 -30 128 -17 57 10 75 10 101 0 75 -31 103 -35 159 -21 34 8
74 10 104 6 126 -18 154 -18 191 -3 54 23 89 29 128 21 29 -5 34 -10 34 -35 0
-58 -26 -98 -77 -121 -42 -19 -71 -23 -219 -26 -187 -5 -338 10 -549 54 -186
39 -233 70 -251 168 l-7 38 42 -28 c40 -26 44 -27 99 -16z m2405 -199 c79 -22
130 -95 113 -163 -9 -37 -59 -67 -119 -73 -128 -12 -219 112 -156 213 19 32
24 34 72 34 29 0 69 -5 90 -11z m2079 -516 l49 -91 -38 -23 c-34 -21 -54 -25
-183 -30 -163 -7 -200 -17 -288 -79 -32 -22 -62 -40 -68 -40 -5 0 -36 32 -68
70 -40 49 -56 76 -51 88 11 38 97 114 161 144 60 28 74 30 234 37 94 5 173 11
177 15 14 14 28 -3 75 -91z m1057 67 c50 -14 104 -54 140 -104 l31 -44 -46 1
c-39 2 -49 -2 -67 -25 -19 -26 -19 -28 -3 -53 15 -23 23 -26 64 -23 l47 3 0
43 c0 23 3 42 7 42 13 0 40 -99 45 -171 5 -69 4 -78 -16 -98 -27 -27 -42 -27
-71 4 -27 29 -46 31 -71 9 -16 -15 -20 -14 -51 10 -31 23 -37 24 -71 14 -33
-10 -42 -9 -77 11 -37 20 -41 21 -76 6 -36 -15 -38 -14 -72 11 l-34 27 -44
-22 c-25 -11 -47 -21 -49 -21 -2 0 -11 13 -20 30 -19 37 -19 90 -1 135 31 73
170 190 248 209 26 6 26 5 21 -36 -7 -47 11 -68 59 -68 30 0 68 31 68 55 0 8
-9 24 -20 35 -11 11 -20 22 -20 25 0 8 43 6 79 -5z m-7578 -60 c17 -16 28 -34
24 -39 -3 -6 -60 -9 -133 -8 -143 2 -181 -7 -313 -74 -83 -43 -110 -47 -130
-23 -12 14 -9 20 16 40 40 31 179 91 268 114 41 11 108 19 155 19 80 1 85 0
113 -29z m3874 -36 c21 -22 25 -37 25 -84 0 -31 -4 -81 -10 -111 -5 -30 -19
-126 -30 -214 -12 -88 -26 -196 -31 -240 -18 -137 -37 -330 -34 -334 2 -2 7
10 11 25 52 225 175 616 223 713 64 125 161 212 246 219 44 4 55 1 83 -23 72
-61 70 -142 -19 -580 -17 -82 -51 -249 -75 -370 -25 -121 -47 -229 -50 -240
-4 -15 -3 -17 4 -5 5 8 33 92 61 185 28 94 62 204 75 245 14 41 52 170 86 285
73 249 105 315 167 352 38 22 53 25 113 21 59 -3 72 -7 94 -31 31 -34 46 -85
46 -162 0 -90 -137 -739 -185 -879 -32 -92 -33 -136 -5 -136 103 0 245 224
300 473 14 59 25 76 41 60 5 -5 1 -38 -11 -81 -25 -91 -25 -98 3 -42 12 25 24
47 27 50 3 3 16 19 28 36 31 45 120 103 172 112 120 21 199 -59 157 -160 -22
-52 -64 -71 -167 -76 l-85 -4 -17 -37 c-31 -66 -43 -127 -32 -168 8 -33 13
-38 42 -41 73 -7 259 87 355 181 60 58 77 68 77 44 0 -21 -79 -95 -156 -146
-154 -104 -313 -141 -378 -90 -42 33 -60 77 -60 151 l0 67 -27 -62 c-60 -136
-116 -216 -190 -267 -38 -25 -54 -31 -90 -28 -37 3 -47 8 -66 37 -27 40 -29
90 -8 206 112 613 143 857 115 929 -14 37 -67 36 -102 -1 -44 -48 -54 -74
-158 -423 -159 -534 -225 -728 -255 -759 -19 -19 -40 -1 -56 47 -13 41 -7 252
10 342 24 122 101 612 112 710 7 59 9 130 5 163 -7 52 -10 57 -32 57 -43 0
-119 -82 -165 -178 -61 -127 -106 -270 -230 -737 -12 -44 -30 -109 -40 -144
-11 -36 -19 -94 -19 -136 0 -65 -3 -76 -22 -89 -27 -19 -72 -21 -85 -3 -19 24
-22 77 -12 253 17 325 101 1107 121 1131 19 23 77 15 103 -13z m-3939 -44 c66
0 -17 -50 -126 -76 -69 -16 -250 -31 -250 -21 0 12 75 55 126 72 59 20 158 35
198 29 16 -2 39 -4 52 -4z m132 -115 c42 -286 65 -686 42 -700 -18 -11 -245
-55 -317 -61 l-71 -7 -22 43 c-72 141 -264 709 -246 727 2 2 20 -4 42 -13 31
-13 61 -15 139 -11 125 6 205 26 320 81 59 29 92 40 96 32 3 -6 11 -47 17 -91z
m211 35 c77 -39 107 -108 97 -225 -3 -39 -12 -90 -21 -114 -19 -54 -19 -51 6
-51 12 0 19 -5 16 -12 -2 -7 -16 -12 -30 -10 -19 2 -27 -3 -32 -19 -10 -29
-72 -97 -106 -115 -67 -34 -65 -4 2 61 135 131 185 304 118 411 -30 49 -70 67
-135 62 -43 -4 -51 -2 -43 8 10 12 34 20 72 23 10 0 35 -8 56 -19z m13 -80
c29 -30 30 -33 26 -108 -5 -101 -42 -184 -109 -247 -27 -25 -53 -44 -58 -41
-8 5 -15 79 -27 291 l-7 110 29 12 c16 6 48 11 72 12 36 1 49 -4 74 -29z
m2137 -46 c35 -25 49 -70 57 -183 4 -56 11 -104 15 -107 5 -3 39 5 76 16 116
36 309 37 321 2 3 -10 -14 -11 -75 -6 -86 7 -191 -6 -270 -35 -54 -19 -52 -11
-32 -146 21 -139 61 -312 95 -415 45 -132 99 -246 120 -254 50 -19 114 96 169
309 34 130 37 150 36 274 l-2 133 60 -4 c91 -6 93 -10 85 -147 -10 -173 22
-281 83 -281 40 0 89 26 113 59 l22 32 -22 117 c-11 64 -27 141 -35 170 -11
45 -11 54 1 67 37 36 108 24 136 -23 16 -27 42 -165 56 -296 4 -38 12 -71 17
-73 15 -5 82 109 113 190 15 39 33 72 40 75 46 15 -65 -234 -132 -297 -25 -23
-26 -28 -20 -105 6 -82 -7 -232 -26 -297 -15 -51 -48 -97 -97 -132 -73 -52
-184 -39 -260 30 -39 35 -53 70 -53 132 0 82 59 142 243 245 57 32 61 41 52
102 l-7 46 -26 -25 c-42 -39 -66 -47 -134 -47 -88 0 -126 21 -160 88 -27 53
-27 53 -33 25 -66 -299 -162 -446 -265 -403 -78 32 -160 160 -215 335 -8 24
-15 34 -18 25 -2 -8 -11 -35 -18 -59 -7 -24 -33 -78 -57 -120 l-43 -76 23 -17
c76 -58 114 -127 103 -186 -25 -135 -173 -223 -272 -162 -45 27 -58 79 -38
148 9 29 19 52 23 52 8 0 46 60 40 63 -1 1 -34 17 -71 36 -38 19 -85 45 -104
58 -25 17 -34 20 -30 9 4 -9 18 -53 31 -98 54 -180 61 -325 16 -373 -26 -28
-75 -34 -113 -14 -34 18 -94 86 -148 169 l-49 75 0 -61 c0 -65 -20 -136 -47
-166 -23 -26 -84 -23 -141 6 -150 77 -244 307 -178 434 29 57 130 95 190 72
25 -9 27 -8 21 7 -22 53 6 83 77 83 46 0 59 -13 93 -97 39 -95 136 -295 182
-374 77 -133 96 -145 108 -65 12 76 -22 242 -88 436 -44 129 -48 175 -18 230
25 47 70 71 144 77 56 5 65 3 89 -20 29 -27 44 -67 34 -93 -8 -21 -22 -10 -31
23 -11 44 -34 63 -76 63 -81 0 -107 -105 -43 -175 35 -37 197 -125 231 -125
23 0 96 133 114 206 6 27 19 55 27 61 14 11 12 26 -16 140 -17 71 -36 154 -42
186 -6 31 -17 57 -23 57 -7 0 -39 -9 -72 -19 -121 -38 -242 -35 -276 6 -14 16
4 17 71 3 51 -10 145 1 228 28 l54 17 -6 40 c-3 22 -13 85 -21 140 -20 134
-19 172 3 184 26 15 65 13 91 -5z m4807 -359 c0 -173 -4 -315 -8 -315 -8 0
-25 77 -38 173 -11 90 -13 214 -4 345 6 78 10 92 28 100 12 6 22 11 22 11 1 1
1 -141 0 -314z m-92 283 c11 -19 12 -44 4 -140 -8 -93 -6 -148 6 -263 19 -170
19 -168 7 -160 -27 16 -58 304 -61 553 0 38 22 43 44 10z m256 -50 c-1 -118
-20 -467 -30 -540 -10 -67 -22 -99 -35 -87 -10 11 21 644 34 667 20 38 31 24
31 -40z m-85 -148 c-1 -212 -14 -445 -26 -433 -31 31 -37 471 -8 587 22 86 34
30 34 -154z m229 47 c-1 -133 -25 -304 -58 -408 -30 -92 -32 -65 -7 88 11 65
22 170 26 233 9 182 15 224 28 211 8 -8 12 -51 11 -124z m-6257 101 c28 -26
28 -41 4 -93 -24 -50 -92 -120 -234 -239 -146 -121 -140 -112 -122 -172 8 -26
12 -50 10 -52 -11 -11 -34 10 -40 37 -4 17 -12 31 -18 31 -10 0 -213 -200
-245 -241 -11 -15 -4 -26 50 -81 35 -36 105 -109 157 -164 52 -54 138 -144
190 -199 106 -111 379 -399 490 -515 39 -41 71 -81 71 -88 0 -21 -47 -62 -71
-62 -15 0 -162 142 -507 490 -395 400 -487 488 -499 479 -7 -7 -30 -35 -49
-63 -181 -261 -232 -377 -241 -552 -6 -109 8 -178 47 -242 19 -31 21 -32 42
-17 46 32 108 8 108 -42 0 -30 -36 -62 -69 -63 -53 0 -143 145 -164 266 -13
76 1 199 34 284 46 122 190 364 264 443 15 17 15 20 1 36 -22 24 -20 40 6 68
15 16 33 23 59 23 34 0 47 10 175 141 l139 140 6 79 c8 102 42 172 129 260 70
71 171 130 223 130 18 0 41 -9 54 -22z m6181 -3 c17 -37 15 -129 -8 -305 -19
-151 -48 -283 -49 -230 0 14 6 133 14 265 8 132 15 252 15 268 0 34 13 35 28
2z m165 -95 c-5 -174 -47 -365 -100 -457 -14 -24 -26 -43 -28 -43 -2 0 5 29
15 65 26 89 48 231 55 350 7 127 22 187 44 183 14 -3 16 -18 14 -98z m119 90
l41 0 -7 -62 c-8 -68 -57 -267 -83 -338 -33 -88 -121 -215 -137 -199 -3 3 13
60 34 127 42 131 70 268 70 343 0 85 11 141 27 135 8 -4 33 -6 55 -6z m-853
-440 c151 -43 106 -219 -81 -317 -72 -38 -186 -39 -267 -4 l-53 24 -82 -84
c-269 -277 -411 -489 -366 -544 16 -20 82 -19 140 1 105 36 286 139 395 224
71 56 121 74 182 67 37 -4 54 -13 88 -48 53 -54 63 -92 35 -137 -21 -33 -65
-61 -77 -48 -4 4 7 20 25 35 25 22 32 37 32 64 0 42 -17 57 -67 63 -43 6 -91
-19 -118 -59 -23 -35 -37 -141 -29 -215 l7 -64 131 5 c72 4 146 9 165 13 26 5
33 4 29 -7 -7 -23 -86 -37 -210 -38 l-118 -1 0 -27 c-1 -37 -31 -103 -61 -130
-66 -61 -182 -71 -265 -24 -87 51 -113 123 -63 177 36 40 80 54 164 54 l75 0
0 68 c0 37 7 91 14 120 8 28 10 52 6 52 -5 0 -35 -17 -67 -38 -140 -92 -284
-152 -363 -152 -39 0 -52 6 -84 35 l-38 35 4 72 c3 40 9 82 13 93 6 12 -15 -1
-50 -31 -143 -122 -239 -139 -265 -45 -13 50 -5 87 42 196 22 50 42 96 45 104
3 7 -16 -2 -43 -21 -102 -71 -190 -85 -226 -37 -75 100 -3 313 139 416 71 51
137 64 196 39 36 -14 87 -69 87 -92 0 -21 18 -17 30 6 14 27 46 25 86 -5 56
-43 54 -63 -18 -156 -78 -101 -268 -432 -268 -465 0 -61 224 103 321 236 111
152 151 201 238 292 228 238 435 343 590 298z m-7384 -1036 c21 -9 42 -33 59
-65 26 -47 28 -49 49 -34 12 9 40 20 61 26 50 13 109 -10 125 -50 24 -60 23
-79 -3 -137 -14 -31 -26 -63 -26 -70 0 -8 18 -25 40 -39 48 -30 53 -63 17
-116 -21 -32 -28 -34 -106 -46 -46 -6 -90 -18 -98 -26 -8 -7 -21 -40 -29 -73
-21 -79 -29 -91 -72 -113 -67 -34 -105 -36 -166 -8 -91 42 -112 102 -63 176
33 50 33 53 3 45 -36 -9 -65 11 -59 38 3 13 13 32 22 42 12 15 13 20 3 23 -29
11 -72 56 -72 77 0 17 12 28 51 46 l51 24 -24 18 c-50 38 -58 51 -58 93 0 53
13 65 70 65 43 0 46 2 69 46 38 70 90 90 156 58z m4912 -36 c91 -43 147 -141
148 -258 0 -94 -15 -142 -63 -205 -50 -66 -123 -106 -208 -113 -110 -8 -193
47 -247 166 -32 72 -30 189 4 262 70 149 229 213 366 148z m-1328 -114 c62
-18 122 -53 145 -86 14 -20 14 -23 -1 -40 -9 -10 -34 -23 -55 -29 -38 -10 -41
-9 -82 29 -62 58 -141 84 -251 85 -116 1 -189 -29 -232 -94 -45 -67 -77 -96
-118 -108 -21 -6 -41 -8 -44 -5 -3 3 5 25 18 48 87 165 393 263 620 200z
m4445 -6 c62 -55 23 -158 -78 -210 -26 -13 -67 -23 -112 -26 l-71 -4 -12 32
c-17 50 -13 111 9 148 45 73 208 110 264 60z m-7732 -437 c37 -38 42 -40 87
-34 64 7 91 -17 91 -82 0 -40 -4 -47 -32 -65 -18 -11 -37 -21 -42 -23 -5 -2 1
-17 13 -33 19 -26 20 -34 11 -59 -14 -37 -26 -45 -70 -45 -29 0 -39 6 -57 35
-23 34 -23 34 -57 20 -55 -23 -107 -19 -139 10 -36 34 -34 51 8 91 l35 33 -19
48 c-21 54 -15 86 22 112 60 44 99 42 149 -8z m2491 -242 c41 -11 58 -35 36
-50 -13 -9 -85 -4 -115 8 -11 4 -13 -3 -8 -28 25 -148 271 -438 500 -591 219
-146 446 -235 709 -278 211 -35 533 -23 703 26 71 20 92 54 92 147 0 52 -9 94
-36 175 -75 222 -51 337 81 398 103 49 220 21 312 -73 45 -47 88 -127 128
-240 11 -29 24 -53 31 -53 14 0 122 114 203 215 31 38 73 88 94 110 l37 40
-27 8 c-16 4 -62 5 -105 2 -86 -7 -107 5 -56 31 25 13 49 15 114 11 151 -9
204 -55 211 -182 4 -70 -7 -96 -34 -79 -13 8 -20 30 -25 73 -7 62 -13 81 -27
81 -4 0 -51 -54 -104 -119 -320 -396 -746 -620 -1261 -663 -366 -30 -755 61
-1069 251 -109 66 -275 200 -365 295 -122 129 -191 232 -232 351 l-18 50 -12
-33 c-12 -31 -36 -52 -61 -52 -23 0 -3 81 29 113 56 55 183 82 275 56z m4931
-303 c42 -18 83 -61 97 -105 15 -44 -1 -98 -37 -132 l-27 -24 8 25 c4 14 10
49 12 77 4 48 2 55 -25 83 -22 22 -40 30 -65 30 -59 0 -81 -46 -52 -112 11
-26 -35 -24 -69 3 -40 32 -37 90 8 135 28 28 42 34 75 34 23 0 57 -6 75 -14z
m-571 -40 c66 -28 91 -93 52 -136 -25 -27 -50 -27 -35 0 23 44 -25 117 -84
127 -30 5 -40 1 -66 -25 -41 -42 -41 -85 3 -141 67 -87 105 -146 100 -154 -3
-5 -34 21 -69 57 -35 36 -69 66 -74 66 -18 0 -42 62 -37 96 16 97 116 150 210
110z m-6613 -43 c20 -4 53 -25 83 -54 l50 -49 88 7 c151 10 209 -27 250 -160
12 -39 36 -100 53 -134 30 -61 30 -62 13 -97 -9 -20 -28 -41 -41 -47 -21 -10
-24 -19 -28 -84 -8 -116 -40 -147 -165 -153 -70 -4 -83 -7 -88 -23 -9 -29 -54
-78 -86 -94 -58 -31 -171 -15 -276 38 l-50 26 -62 -20 c-107 -33 -219 -21
-274 29 -30 27 -47 80 -47 147 l0 63 -56 38 c-93 64 -103 112 -41 196 30 40
32 49 32 123 0 93 11 117 70 148 49 26 164 28 238 4 l48 -15 37 40 c62 68 147
92 252 71z m7550 -108 c39 -20 60 -53 60 -92 0 -67 -28 -95 -88 -84 -22 3 -23
7 -20 74 3 69 3 70 -26 80 -21 7 -37 6 -62 -6 -26 -13 -32 -13 -28 -3 8 21 64
46 102 46 18 0 46 -7 62 -15z m-165 -279 c71 -20 168 -66 173 -83 6 -20 -49
-16 -93 8 -108 56 -197 73 -313 59 -109 -14 -156 0 -99 28 31 17 256 8 332
-12z m-260 -81 c101 -41 122 -46 201 -47 49 -1 124 1 167 6 l77 8 0 -40 c0
-54 -25 -180 -45 -228 -56 -136 -169 -190 -310 -150 -140 41 -212 138 -222
302 -5 79 3 194 14 194 3 0 56 -20 118 -45z m-378 18 c33 -15 73 -64 73 -88 0
-5 -5 -17 -10 -25 -8 -12 -13 -11 -37 11 -41 38 -66 49 -117 49 -70 0 -139
-20 -239 -69 -97 -48 -137 -89 -137 -139 0 -24 -1 -25 -20 -7 -14 13 -20 31
-20 59 0 66 28 99 122 145 149 74 309 100 385 64z m-5587 -69 c26 -67 -33
-123 -112 -107 -38 7 -53 43 -38 89 10 28 17 33 48 37 88 9 92 8 102 -19z
m6520 -20 c65 -39 87 -149 41 -212 -41 -58 -125 -88 -165 -59 -17 12 -13 16
41 35 68 25 83 46 83 119 0 41 -4 50 -40 83 -22 20 -37 40 -33 43 11 12 44 8
73 -9z m-6397 -63 c33 -28 38 -47 18 -70 -10 -11 -28 -21 -40 -21 -12 0 -32
-5 -44 -12 -22 -11 -105 -21 -162 -19 -42 1 -105 0 -140 -2 -37 -3 -43 18 -19
69 27 56 53 62 104 25 33 -24 53 -31 89 -31 41 0 49 4 90 49 48 53 57 54 104
12z m5585 -162 c7 -133 -36 -243 -121 -303 -34 -25 -52 -30 -116 -34 -142 -8
-223 50 -310 223 -28 55 -51 103 -51 107 0 3 28 9 63 13 95 10 209 41 305 84
48 22 110 49 137 59 l50 20 19 -41 c12 -26 21 -74 24 -128z m-674 105 c26 -10
18 -29 -22 -52 -56 -31 -74 -56 -79 -109 -9 -94 66 -152 197 -153 51 0 57 -2
74 -30 l17 -30 -37 -16 c-60 -25 -160 -16 -213 19 -56 38 -101 129 -101 206 0
106 88 194 164 165z m-4827 -72 c-16 -134 -78 -213 -189 -240 -61 -16 -84 -15
-146 3 -63 19 -139 78 -180 141 -39 57 -39 64 -6 64 39 0 61 -16 89 -64 14
-25 32 -50 40 -56 12 -10 15 -8 15 11 -1 13 -7 42 -15 64 -20 54 -19 57 12 53
17 -2 32 -12 39 -28 7 -14 18 -38 25 -53 12 -25 14 -26 20 -10 4 10 8 32 8 49
1 32 15 44 52 44 12 0 20 -9 24 -27 18 -89 38 -104 43 -34 2 24 11 55 20 69
l16 24 18 -22 c10 -12 18 -32 18 -44 0 -11 4 -28 10 -36 11 -18 16 -6 24 60 3
29 12 51 26 62 36 29 43 22 37 -30z m4903 -87 c62 -149 63 -139 -12 -133 -72
6 -111 26 -134 69 -31 60 -10 125 47 148 48 20 59 10 99 -84z m-4451 -379 c17
-9 35 -25 41 -35 20 -39 6 -105 -26 -124 -11 -7 -11 -12 2 -32 37 -57 -15 -95
-130 -95 -89 0 -82 -14 -90 172 -6 125 -6 127 16 132 42 9 156 -2 187 -18z
m245 10 c95 -40 112 -182 31 -263 -27 -27 -41 -33 -76 -33 -89 0 -139 59 -139
162 0 112 87 175 184 134z m316 -13 c0 -16 3 -44 6 -64 6 -35 5 -36 -31 -42
-49 -8 -65 -23 -65 -61 0 -41 16 -56 58 -56 30 0 33 -2 30 -27 -3 -25 -8 -28
-43 -31 -99 -8 -165 46 -173 142 -4 54 11 99 42 125 25 21 88 40 134 41 39 0
42 -2 42 -27z m468 3 c37 -19 62 -53 72 -99 l7 -32 7 30 c17 73 57 113 122
121 83 10 147 -54 147 -150 0 -96 -53 -156 -138 -156 -40 0 -52 5 -81 34 -19
19 -37 48 -40 65 -8 37 -24 51 -24 21 0 -71 -75 -120 -183 -120 -45 0 -69 4
-71 13 -3 6 -7 74 -10 149 -5 135 -5 137 17 142 42 9 143 -1 175 -18z m543 14
c15 -9 19 -22 19 -66 0 -45 -3 -55 -14 -51 -30 12 -37 -18 -16 -66 23 -51 16
-88 -19 -106 -22 -12 -101 -15 -101 -3 0 4 -3 17 -6 30 -5 19 -2 22 20 22 39
0 33 30 -14 78 -42 42 -52 82 -29 123 21 40 115 62 160 39z m625 -1 c52 -13
84 -48 84 -91 0 -31 -16 -68 -33 -80 -7 -4 -6 -16 2 -36 14 -34 4 -64 -29 -82
-21 -11 -159 -13 -176 -2 -7 4 -13 64 -17 149 -6 129 -5 142 11 146 34 9 114
7 158 -4z m533 -13 c53 -28 61 -118 14 -154 -13 -9 -14 -15 -5 -24 19 -19 14
-63 -9 -84 -17 -15 -40 -20 -108 -22 l-88 -4 -6 93 c-4 50 -7 118 -7 150 0 52
2 58 23 63 40 9 155 -2 186 -18z m406 -2 c57 -26 77 -66 73 -141 -4 -70 -27
-105 -85 -129 -34 -15 -159 -19 -166 -6 -2 4 -8 71 -11 149 l-7 141 23 5 c42
10 135 -1 173 -19z m503 20 c20 -6 22 -13 22 -65 0 -33 -3 -58 -7 -58 -35 6
-45 -30 -18 -65 22 -29 18 -64 -10 -92 -20 -20 -33 -25 -67 -22 -36 3 -43 7
-49 31 -7 25 -5 27 22 27 40 0 38 31 -5 67 -18 15 -39 39 -46 52 -14 27 -6 84
15 101 29 24 98 36 143 24z m-2850 -141 c18 -76 32 -141 32 -145 0 -13 -108
-9 -112 3 -3 9 -10 9 -27 -1 -19 -10 -25 -10 -33 1 -7 11 -11 11 -15 2 -2 -7
-18 -13 -35 -13 -20 0 -29 4 -25 13 2 6 17 66 32 132 15 66 29 126 31 133 2 8
24 12 62 12 l58 0 32 -137z m1089 119 c-26 -29 -38 -73 -31 -117 9 -60 20 -75
40 -50 13 17 16 18 24 5 13 -21 12 -31 -6 -51 -12 -14 -13 -22 -4 -39 11 -20
9 -21 -32 -21 -24 1 -62 -2 -86 -5 -72 -10 -117 36 -92 95 6 16 22 34 36 42
16 8 23 18 18 28 -13 34 -16 89 -5 110 10 18 20 21 83 21 67 0 70 -1 55 -18z
m623 -19 c0 -69 -9 -84 -43 -81 -23 2 -32 -2 -35 -14 -3 -15 4 -18 32 -18 38
0 39 -2 30 -38 -6 -19 -11 -22 -35 -17 -25 6 -29 3 -29 -14 0 -16 8 -20 39
-23 35 -3 38 -5 30 -25 -8 -22 -14 -23 -99 -23 l-90 0 0 78 c0 42 -3 107 -7
145 l-6 67 107 0 106 0 0 -37z m420 -16 c0 -30 -3 -95 -6 -145 l-7 -92 -54 0
c-34 0 -55 5 -58 13 -2 6 -6 72 -8 145 l-5 132 69 0 69 0 0 -53z m512 -89 l33
-143 -48 -3 c-27 -2 -55 2 -62 8 -10 8 -19 8 -35 -2 -17 -11 -22 -11 -29 1 -6
9 -11 10 -15 2 -4 -6 -20 -11 -35 -11 l-28 0 28 117 c16 65 29 127 29 139 0
30 7 34 70 34 l58 0 34 -142z m-5114 -254 c-1 -11 -19 -27 -38 -36 -71 -34
-296 -99 -350 -101 -50 -2 -55 0 -58 20 -3 18 4 24 35 32 21 5 74 19 118 31
44 11 125 35 180 54 100 34 120 34 113 0z m121 -20 c45 -14 -170 -108 -358
-155 -110 -28 -251 -48 -251 -36 0 14 45 29 125 43 131 23 323 88 375 128 44
34 57 36 109 20z m6613 -11 c32 -19 71 -86 81 -140 4 -17 0 -54 -8 -81 -24
-79 -84 -120 -186 -124 -88 -4 -87 2 4 86 20 18 27 35 27 60 0 31 -4 38 -34
50 -64 27 -73 81 -22 132 40 40 88 45 138 17z m-6552 -67 c0 -59 -60 -92 -328
-177 -142 -45 -220 -64 -304 -74 l-57 -6 -10 38 c-17 60 -17 60 71 67 113 9
269 49 386 98 131 55 224 88 234 82 4 -3 8 -16 8 -28z m3199 -46 c133 -67 182
-275 104 -441 -39 -85 -95 -146 -158 -175 -27 -13 -51 -22 -53 -20 -2 2 17 35
42 73 53 80 76 158 76 262 0 56 -5 86 -21 118 -26 54 -54 73 -111 76 l-43 2 2
-64 2 -63 -36 5 c-51 9 -73 32 -73 80 0 101 93 184 193 171 22 -2 56 -13 76
-24z m3127 -19 c39 -24 58 -69 50 -116 -7 -35 -7 -35 -61 -35 -55 0 -55 0 -55
-31 0 -25 12 -42 63 -89 62 -58 62 -59 37 -69 l-25 -10 26 0 c44 -1 89 -13 89
-23 0 -6 -16 -46 -35 -91 -19 -44 -34 -81 -32 -82 1 -2 29 10 62 26 85 41 162
62 201 56 24 -4 34 -2 34 8 0 16 22 25 64 25 42 0 56 -16 56 -62 0 -36 3 -39
60 -68 58 -29 60 -32 60 -69 0 -49 31 -84 104 -116 62 -28 86 -56 86 -103 0
-69 -33 -116 -124 -180 -117 -82 -280 -128 -391 -110 -160 25 -259 113 -321
285 -13 36 -39 89 -57 117 -54 84 -39 180 38 247 22 20 39 47 49 81 16 55 14
68 -11 68 -23 0 -97 59 -121 96 -60 92 -45 209 32 247 42 21 85 21 122 -2z
m-6326 -64 c0 -39 -21 -55 -145 -108 -176 -76 -374 -139 -454 -146 l-68 -6 -6
39 c-4 22 -7 44 -7 50 0 6 25 14 55 18 91 10 312 72 450 125 149 58 175 62
175 28z m7117 -52 c7 -21 -21 -51 -69 -72 -22 -10 -47 -31 -58 -50 -11 -18
-31 -38 -45 -45 -16 -7 -24 -17 -20 -26 8 -22 -14 -92 -32 -99 -32 -13 -45 55
-17 95 8 12 20 20 25 17 5 -4 9 8 9 25 0 36 38 80 69 80 14 0 23 9 27 25 6 26
58 65 87 65 10 0 20 -7 24 -15z m-7134 -52 c2 -5 7 -35 11 -68 l6 -61 -67 -36
c-143 -77 -313 -133 -437 -144 l-73 -6 -16 58 c-18 62 -13 74 28 74 47 0 314
96 500 180 25 11 43 12 48 3z m3054 -118 c28 -19 49 -58 58 -111 6 -40 4 -43
-29 -69 -30 -22 -43 -26 -72 -22 -48 8 -51 12 -31 46 21 35 13 59 -20 67 -18
5 -31 1 -46 -15 -18 -18 -22 -33 -22 -90 0 -74 21 -125 92 -223 38 -53 37 -54
-10 -34 -107 44 -188 253 -143 369 34 89 148 131 223 82z m-1274 -46 c12 -7
29 -21 38 -32 9 -12 34 -26 55 -32 30 -8 40 -17 47 -42 8 -25 16 -33 43 -38
58 -10 69 -72 22 -122 -45 -48 -189 -54 -320 -13 -65 20 -158 72 -158 89 0 5
15 29 34 54 19 24 39 53 45 64 6 12 29 25 53 32 24 6 57 20 73 31 35 23 39 24
68 9z m-1894 -126 c5 -21 31 -116 56 -212 43 -161 45 -175 30 -190 -15 -15
-17 -15 -30 2 -20 28 -95 348 -95 408 0 43 27 37 39 -8z m-81 -5 c5 -7 15 -31
21 -53 23 -81 82 -368 77 -373 -19 -18 -36 27 -79 204 -26 110 -47 207 -47
217 0 20 13 22 28 5z m-58 -32 c20 -55 101 -399 96 -412 -12 -30 -34 -12 -55
44 -30 81 -81 303 -81 351 0 47 24 57 40 17z m-85 -5 c10 -17 86 -333 92 -384
5 -40 3 -49 -8 -45 -8 3 -25 47 -40 104 -15 54 -39 142 -53 194 -30 108 -32
140 -12 140 8 0 17 -4 21 -9z m-64 -39 c14 -38 86 -321 94 -370 7 -42 6 -44
-16 -40 -22 3 -27 16 -57 128 -49 188 -73 300 -67 310 9 15 36 -1 46 -28z
m-104 22 c14 -4 24 -17 29 -38 3 -17 26 -106 50 -197 45 -172 52 -213 33 -207
-9 3 -149 416 -149 441 0 8 8 9 37 1z m5358 -85 c83 -7 154 -15 158 -19 6 -5
57 -236 57 -257 0 -2 -15 -10 -34 -18 -23 -10 -67 -14 -128 -13 -51 0 -132 -5
-181 -12 -48 -7 -90 -11 -93 -8 -5 6 11 222 22 306 6 38 9 43 28 38 11 -3 89
-11 171 -17z m-3231 -24 c90 -32 106 -35 211 -35 82 0 115 -3 115 -12 0 -6
-21 -64 -47 -129 l-46 -117 -40 -4 c-112 -11 -239 25 -273 77 -13 20 -32 152
-34 238 0 23 3 22 114 -18z m2897 -7 c19 -6 47 -20 63 -31 l29 -20 -6 -95 c-4
-52 -9 -97 -11 -99 -2 -3 -31 -7 -63 -10 -48 -4 -62 -2 -83 15 -50 40 -35 231
18 245 10 3 17 5 18 6 1 0 16 -4 35 -11z m-514 -129 c24 -11 59 -39 79 -62 32
-38 35 -47 32 -88 -5 -49 -36 -100 -108 -179 l-41 -45 25 46 c48 84 23 182
-62 246 -36 28 -52 33 -96 33 -28 0 -57 -5 -64 -12 -19 -19 -14 -84 12 -189
14 -52 28 -128 32 -168 l7 -73 -29 15 c-44 22 -127 29 -197 17 -82 -15 -107
-32 -107 -73 0 -44 11 -57 54 -67 33 -7 36 -6 38 16 4 58 3 59 -17 56 -17 -2
-17 -1 -5 8 19 13 270 9 270 -5 1 -5 23 15 51 45 l50 55 -20 -45 c-39 -86 -18
-123 65 -118 53 3 50 -3 41 73 -5 50 116 12 129 -41 10 -40 -5 -92 -33 -114
-48 -37 -143 -22 -218 35 -25 19 -47 35 -49 35 -2 0 -7 -34 -11 -76 -6 -60
-10 -74 -22 -70 -8 3 -23 6 -34 6 -23 0 -26 35 -4 44 10 3 15 19 15 46 0 37
-2 40 -27 40 -43 0 -63 -26 -63 -82 0 -26 -2 -48 -4 -48 -2 0 -11 -3 -19 -6
-24 -9 -30 27 -7 43 13 10 20 25 20 49 0 33 -1 34 -40 34 -37 0 -40 -2 -40
-27 0 -44 -11 -73 -27 -73 -16 0 -15 34 2 73 6 13 2 17 -17 17 -34 0 -48 -18
-48 -62 0 -34 -3 -38 -26 -38 -23 0 -25 3 -20 27 3 16 2 34 -3 42 -8 12 -13
12 -36 -3 -24 -16 -26 -23 -22 -59 2 -23 8 -52 12 -63 6 -21 4 -21 -39 -17
-43 5 -45 4 -52 -22 -4 -15 -3 -40 2 -54 8 -23 15 -26 54 -26 44 0 45 1 51 35
l5 35 14 -27 c12 -25 70 -57 70 -39 0 4 -8 32 -19 62 -14 41 -16 58 -7 72 10
15 15 9 41 -45 23 -47 36 -64 54 -66 21 -3 23 -1 17 23 -4 15 -10 41 -13 59
l-6 31 22 -22 c31 -32 91 -29 91 4 0 10 7 6 21 -11 26 -33 58 -31 77 4 12 23
12 20 6 -30 -3 -30 -7 -56 -8 -56 -12 -11 -358 -108 -426 -120 -136 -23 -151
-18 -207 69 -78 122 -117 197 -101 197 8 0 47 29 86 65 78 70 107 82 96 40 -3
-14 -2 -25 4 -25 5 0 24 -3 41 -6 31 -6 31 -6 31 38 0 24 -5 49 -12 56 -18 18
-84 14 -127 -7 -50 -26 -109 -88 -116 -123 -4 -15 -11 -28 -16 -28 -23 0 -171
344 -188 436 l-8 41 136 6 c275 13 563 80 672 158 24 17 27 24 18 35 -15 18 3
19 30 2 16 -10 32 -6 98 24 91 42 131 46 190 17z m-372 -27 l50 -23 -25 -19
c-62 -47 -261 -107 -450 -134 -151 -22 -320 -31 -320 -18 0 6 19 29 43 53 65
65 227 133 387 163 14 2 79 3 145 2 101 -1 128 -5 170 -24z m-3479 -116 c10
-69 -15 -123 -73 -163 -79 -54 -156 -77 -253 -77 -118 0 -158 16 -190 77 -30
58 -33 56 105 93 55 15 165 54 245 85 160 63 156 64 166 -15z m1589 -52 l96
-7 -7 -41 c-13 -80 -44 -165 -67 -181 -50 -35 -204 -2 -248 53 -19 24 -20 35
-14 97 3 39 9 86 12 107 l5 36 64 -28 c48 -22 86 -30 159 -36z m3341 -10 c8
-18 14 -64 14 -101 0 -84 -26 -148 -67 -164 -45 -18 -229 -22 -308 -7 -65 12
-71 16 -87 48 -25 49 -23 133 3 180 18 31 63 70 83 70 3 0 4 -24 3 -52 l-2
-53 34 -3 c39 -4 51 9 51 54 0 36 16 54 48 54 19 0 23 -4 17 -17 -24 -58 -11
-99 29 -87 28 9 36 22 36 62 0 22 5 32 15 32 10 0 15 -10 15 -34 0 -32 20 -66
40 -66 4 0 17 8 29 18 19 15 21 21 10 50 -12 35 -6 67 12 56 6 -3 17 -21 25
-40z m160 -229 c19 -15 33 -32 31 -38 -25 -76 -385 -131 -633 -96 -85 12 -175
42 -194 64 -27 33 43 85 115 85 12 0 29 -14 42 -35 35 -54 100 -68 282 -63
112 3 154 8 179 21 17 10 32 21 32 25 0 4 9 22 21 41 18 30 23 33 56 28 19 -3
50 -18 69 -32z m-3631 -71 c10 -37 13 -39 52 -42 41 -3 42 -2 49 33 6 34 27
55 40 42 3 -3 8 -24 11 -46 6 -41 5 -41 -26 -41 -51 0 -71 -16 -71 -55 0 -30
5 -37 37 -52 49 -24 54 -43 12 -43 -36 0 -69 -24 -69 -50 0 -33 -22 -40 -80
-26 -77 18 -180 76 -180 102 0 4 14 51 31 105 l31 97 38 -5 c23 -3 48 1 66 10
39 21 46 18 59 -29z"/>
<path d="M8020 8560 c-69 -144 -99 -199 -110 -196 -8 2 -24 7 -35 11 l-20 7
20 -17 c11 -9 39 -21 63 -27 27 -6 49 -20 59 -35 9 -13 19 -20 23 -16 6 7 40
100 40 110 0 2 -11 3 -25 3 -23 0 -24 -2 -13 -25 16 -35 -2 -53 -39 -39 -36
12 -40 57 -6 62 19 3 21 6 13 23 -14 26 4 59 33 59 16 0 18 3 8 9 -9 6 -11 18
-6 40 11 52 75 38 75 -18 0 -33 4 -27 49 66 l39 80 -35 -1 c-49 -1 -63 22 -40
68 9 20 13 36 9 35 -4 0 -50 -90 -102 -199z"/>
<path d="M8310 8282 c-8 -2 -27 -16 -42 -30 -26 -24 -29 -24 -46 -9 -23 21
-71 22 -78 3 -8 -21 20 -73 67 -129 40 -47 42 -47 61 -30 28 25 46 63 59 122
11 54 3 81 -21 73z"/>
<path d="M5245 7611 c-42 -25 -82 -74 -90 -110 -4 -20 0 -45 14 -76 l20 -45
53 1 c29 1 41 4 26 6 l-27 4 20 40 c17 32 20 49 14 96 -5 45 -3 63 9 78 16 19
16 19 30 1 20 -25 36 -104 29 -141 -3 -16 -15 -40 -26 -52 -34 -38 6 -29 47
11 29 26 36 41 36 70 0 107 -77 165 -155 117z"/>
<path d="M6256 7462 c-16 -26 -22 -96 -14 -147 13 -86 89 -225 123 -225 19 0
147 151 174 205 24 47 26 77 10 124 -8 23 -17 31 -35 31 -40 0 -71 -21 -90
-61 -29 -66 -40 -67 -58 -5 -10 32 -25 61 -38 71 -24 16 -64 20 -72 7z"/>
<path d="M7221 6794 c-24 -30 -26 -52 -9 -89 9 -20 18 -25 48 -25 94 0 124 99
39 129 -46 16 -55 14 -78 -15z"/>
<path d="M6145 5888 c-31 -17 -95 -81 -95 -95 0 -31 160 -5 182 30 13 21 9 65
-8 71 -24 9 -57 7 -79 -6z"/>
<path d="M726 6417 c-12 -12 -27 -31 -33 -42 -11 -19 -13 -18 -61 8 -59 32
-76 33 -102 7 -65 -65 24 -257 144 -311 86 -39 111 -21 155 109 35 103 23 234
-23 246 -38 10 -57 6 -80 -17z m86 -57 c15 -69 -38 -251 -75 -258 -27 -5 -118
59 -151 106 -15 22 -31 56 -35 74 -21 94 34 110 105 32 23 -25 47 -43 52 -40
5 3 13 26 16 51 8 51 29 77 59 73 15 -2 23 -13 29 -38z"/>
<path d="M4152 5517 c-18 -12 -67 -44 -109 -71 -86 -56 -113 -93 -113 -154 0
-111 121 -182 198 -117 57 48 76 105 80 243 5 135 4 137 -56 99z"/>
<path d="M2373 5434 c-21 -21 -24 -31 -18 -62 27 -142 148 -352 204 -352 11 0
23 5 26 11 11 17 8 171 -5 219 -21 80 -70 178 -94 185 -80 24 -88 24 -113 -1z"/>
<path d="M3113 5293 c-36 -50 -53 -91 -53 -130 1 -48 18 -71 59 -79 25 -5 37
-2 58 17 47 44 69 133 40 169 -16 21 -59 50 -72 50 -6 0 -20 -12 -32 -27z"/>
<path d="M2025 6326 c-70 -40 -163 -133 -194 -194 -25 -48 -45 -136 -37 -158
4 -11 44 18 146 107 159 137 211 198 208 244 -4 44 -46 45 -123 1z"/>
<path d="M7742 5859 c-72 -14 -155 -57 -242 -127 -46 -37 -85 -72 -87 -78 -7
-23 69 -48 147 -48 61 -1 84 4 123 24 82 42 157 128 157 180 0 49 -28 63 -98
49z"/>
<path d="M6625 5703 c-87 -90 -175 -246 -175 -312 0 -27 3 -31 28 -31 61 0
207 121 268 222 31 50 35 64 29 96 -9 50 -31 72 -71 72 -26 0 -42 -10 -79 -47z"/>
<path d="M7213 4855 c-35 -15 -53 -41 -53 -78 0 -32 18 -46 71 -53 59 -8 123
10 148 43 25 31 28 88 5 97 -29 11 -138 5 -171 -9z"/>
<path d="M5162 3809 c-77 -50 -83 -144 -21 -331 36 -108 40 -131 36 -190 -3
-46 -1 -68 7 -68 6 0 39 13 74 30 l62 29 0 61 c0 55 -29 168 -49 195 -15 19
-20 58 -10 77 6 11 21 18 40 18 27 0 32 -6 59 -64 17 -35 37 -97 45 -137 9
-40 17 -75 19 -77 3 -2 27 13 54 33 48 36 50 39 45 79 -12 94 -85 239 -149
297 -79 71 -151 87 -212 48z"/>
<path d="M746 3615 c-20 -13 -50 -40 -67 -59 l-30 -35 -42 15 c-65 24 -185 30
-229 11 -58 -24 -72 -54 -65 -143 5 -71 4 -76 -22 -107 -79 -90 -68 -133 51
-200 38 -22 38 -22 32 -73 -20 -169 116 -247 307 -174 l49 18 68 -33 c159 -78
278 -63 318 40 17 46 18 46 58 44 108 -5 137 0 167 30 27 27 29 35 29 103 l1
73 39 27 c48 33 51 60 15 117 -13 22 -27 52 -30 68 -37 177 -101 224 -271 200
l-65 -9 -59 56 -59 56 -79 0 c-68 0 -84 -4 -116 -25z m494 -220 l0 -34 28 16
c57 33 84 -16 40 -72 l-22 -28 28 -19 c14 -11 33 -33 42 -49 13 -27 13 -29 -3
-29 -10 0 -33 9 -51 20 -18 11 -35 20 -37 20 -3 0 -2 -30 1 -67 7 -82 -5 -124
-35 -116 -27 7 -29 20 -36 248 l-6 200 25 -28 c17 -19 26 -40 26 -62z m-360
39 c6 -14 10 -42 10 -63 0 -66 49 -325 63 -336 8 -5 19 -20 25 -31 11 -21 9
-22 -56 -32 -37 -5 -68 -9 -70 -7 -1 1 3 16 9 34 13 36 7 126 -16 231 -7 36
-16 86 -20 111 -5 40 -10 49 -35 59 -35 14 -36 17 -13 42 10 11 30 18 55 18
32 0 40 -4 48 -26z m-349 -44 c45 -49 98 -189 106 -281 6 -69 -6 -107 -44
-141 -17 -16 -22 -16 -48 -2 -56 29 -80 87 -90 218 -9 109 -22 156 -51 187
-27 28 -22 39 27 58 35 14 60 5 100 -39z m603 34 c22 -21 24 -314 2 -314 -23
0 -62 37 -87 84 -26 51 -43 61 -33 20 14 -56 9 -103 -13 -125 l-21 -22 -12 39
c-16 52 -26 304 -13 304 10 0 83 -85 110 -126 10 -16 12 -5 12 62 1 44 4 84 8
87 11 12 31 8 47 -9z m-419 -27 c49 -24 95 -85 95 -126 0 -11 -12 -33 -26 -51
l-26 -31 35 -78 c42 -90 54 -131 39 -131 -18 0 -72 51 -93 89 l-20 36 6 -80
c5 -69 4 -78 -8 -65 -28 30 -86 240 -105 378 -8 60 -8 64 12 72 22 9 58 4 91
-13z"/>
<path d="M484 3313 c7 -77 51 -262 65 -276 6 -6 14 5 21 30 11 35 9 52 -16
139 -27 97 -58 174 -71 174 -3 0 -3 -30 1 -67z"/>
<path d="M8140 2993 c0 -46 5 -66 26 -96 23 -35 29 -38 66 -35 53 4 77 35 85
110 l6 56 -59 7 c-33 3 -74 8 -91 11 l-33 5 0 -58z"/>
<path d="M7539 2892 c-26 -9 -56 -24 -68 -32 -19 -14 -20 -19 -10 -54 16 -56
49 -86 98 -86 56 0 85 37 77 98 -5 40 -31 92 -45 92 -3 -1 -27 -9 -52 -18z"/>
<path d="M4283 1919 c-74 -36 -100 -126 -50 -168 14 -11 15 -9 11 21 -5 27 -1
41 21 67 26 30 31 32 69 25 132 -22 172 -104 143 -294 -9 -58 -19 -117 -23
-132 -17 -76 66 21 91 105 19 65 19 181 0 238 -30 88 -114 158 -190 159 -16 0
-49 -9 -72 -21z"/>
<path d="M7576 1501 c-4 -29 -18 -50 -50 -81 -71 -67 -84 -147 -38 -221 16
-24 43 -82 61 -129 56 -146 132 -223 254 -256 72 -19 130 -17 215 6 157 44
289 135 311 214 15 56 -2 85 -71 121 -77 40 -100 66 -107 116 -6 40 -10 44
-70 77 -61 34 -63 36 -58 67 3 18 0 38 -6 44 -18 18 -48 13 -54 -9 -5 -18 -14
-20 -77 -20 -60 -1 -82 -6 -141 -35 -44 -21 -62 -34 -49 -34 39 -2 45 -60 15
-127 -10 -23 -22 -55 -26 -73 -5 -26 -4 -31 12 -31 15 0 24 17 43 77 19 60 31
81 52 92 15 9 30 12 35 8 6 -7 -32 -133 -62 -202 -9 -20 -8 -20 18 -2 24 16
32 16 62 5 19 -6 35 -15 35 -19 0 -17 -39 -95 -53 -107 -9 -8 -28 -12 -44 -10
-22 2 -30 10 -39 37 l-11 33 -13 -31 c-10 -26 -15 -29 -27 -19 -11 9 -13 23
-9 50 9 55 -18 51 -46 -7 -25 -51 -38 -44 -38 22 0 44 44 247 60 275 16 29 12
29 -31 8 -23 -12 -43 -20 -45 -18 -2 3 17 50 41 106 25 56 45 104 45 107 0 3
-20 5 -44 5 -43 0 -44 -1 -50 -39z m422 -297 c15 -30 9 -55 -35 -158 l-34 -80
28 -22 28 -23 -42 -1 c-65 0 -73 6 -73 56 0 25 7 61 15 81 22 51 19 61 -17 71
-36 9 -43 29 -16 46 13 8 26 7 47 -1 28 -10 31 -9 53 23 13 19 26 34 29 34 3
0 11 -12 17 -26z m300 -98 c37 -37 0 -127 -67 -167 -18 -11 -35 -18 -37 -16
-2 2 1 50 8 106 l12 103 35 -6 c19 -3 41 -12 49 -20z"/>
<path d="M4165 1618 c-41 -22 -85 -73 -90 -102 -3 -17 1 -58 9 -91 l14 -60 1
68 c2 108 37 154 106 141 32 -6 35 -9 36 -43 1 -20 4 -46 7 -58 7 -20 9 -21
40 -8 36 16 42 43 18 99 -24 59 -89 83 -141 54z"/>
<path d="M2944 1451 c-93 -8 -119 -30 -98 -85 9 -24 20 -19 34 14 11 26 18 30
49 30 20 0 60 3 89 6 47 6 52 5 52 -12 1 -44 15 -49 65 -20 26 15 45 29 43 31
-10 10 -125 45 -143 43 -11 -1 -52 -4 -91 -7z"/>
<path d="M6097 1234 c-20 -11 -32 -12 -46 -4 -11 5 -33 10 -50 10 -64 0 -48
-84 31 -155 27 -25 54 -45 58 -45 12 0 70 70 81 97 15 40 11 100 -7 107 -23 9
-36 7 -67 -10z"/>
<path d="M2796 1214 c-11 -30 -6 -34 34 -28 38 6 40 5 40 -20 0 -15 -7 -38
-16 -51 -18 -28 -14 -30 33 -13 29 11 35 10 56 -10 l24 -22 25 20 c15 11 35
20 46 20 30 0 36 17 12 30 -13 7 -32 8 -53 2 -47 -12 -59 -6 -91 43 -25 40
-32 45 -66 45 -25 0 -40 -5 -44 -16z"/>
<path d="M4775 990 c-3 -5 -7 -32 -7 -60 l-1 -49 -34 29 c-27 24 -43 30 -79
30 l-45 0 7 -37 c7 -38 7 -38 -14 -20 -17 16 -26 17 -60 8 -22 -6 -45 -18 -52
-26 -12 -14 -10 -53 4 -86 6 -13 -1 -15 -41 -15 -53 1 -60 -9 -48 -70 7 -41
35 -58 81 -49 33 6 34 8 34 50 l0 44 48 3 c38 2 49 7 57 26 13 30 17 28 37
-18 10 -23 23 -40 33 -40 22 0 60 43 72 82 8 24 11 27 12 12 1 -12 6 -35 12
-53 9 -26 16 -31 45 -31 33 0 104 28 104 41 0 9 -37 19 -71 19 -25 0 -27 3
-34 68 -6 60 -36 152 -49 152 -3 0 -8 -4 -11 -10z m-74 -76 c55 -28 70 -102
32 -161 -33 -51 -61 -25 -89 82 -26 96 -12 115 57 79z"/>
<path d="M4862 988 c-21 -11 -22 -16 -17 -72 11 -108 9 -106 63 -106 46 0 92
20 92 41 0 5 -10 9 -22 10 -13 0 -17 3 -10 6 21 8 13 23 -18 36 l-30 13 25 36
c21 31 22 37 9 42 -23 9 -66 6 -92 -6z"/>
<path d="M4215 816 c-14 -20 -14 -31 -5 -67 13 -47 57 -128 94 -174 l24 -30
31 29 c36 34 47 78 32 131 -29 107 -135 174 -176 111z"/>
<path d="M4437 427 c-39 -61 -33 -128 17 -182 48 -51 116 -48 116 5 0 4 -12
10 -27 13 -46 9 -73 42 -73 87 0 22 3 40 6 40 4 0 22 -17 40 -37 l33 -38 1 37
c0 43 -31 84 -71 93 -20 5 -29 1 -42 -18z"/>
</g>
</svg>
